#!OML:ASF F:\VICON\USERDATA\INSTALL\rory3\rory3.ASF
:FULLY-SPECIFIED
:DEGREES
1
root 1.30779 18.31 -31.1539 4.77311 2.68425 -8.11685
lowerback 13.4089 0.124573 8.58849
upperback 0.577065 1.49991 0.334474
thorax -6.71998 0.46938 -4.78194
lowerneck -9.29444 -0.805916 0.348546
upperneck -8.98698 -1.08028 0.17164
head -1.2501 -0.544917 -0.0210693
rclavicle 5.36719e-015 2.98177e-014
rhumerus -27.7987 25.7507 -90.5692
rradius 112.026
rwrist 0.924848
rhand -38.9076 33.367
rfingers 7.12502
rthumb -11.9146 3.72598
lclavicle 5.36719e-015 2.98177e-014
lhumerus -65.042 -6.32736 94.3209
lradius 106.82
lwrist 25.9854
lhand -37.2678 9.09079
lfingers 7.12502
lthumb -10.333 38.8169
rfemur 23.7987 4.68845 38.322
rtibia 29.5753
rfoot 32.2567 -2.63574
rtoes 12.2068
lfemur -38.7817 -5.34693 -9.69749
ltibia 28.7725
lfoot 4.42293 -2.70126
ltoes -10.7503
2
root 1.29888 18.2835 -30.631 4.61298 2.45246 -8.26996
lowerback 13.309 0.175973 8.52224
upperback 0.844456 1.53598 0.380661
thorax -6.37301 0.513666 -4.69508
lowerneck -9.17588 -0.757038 0.223725
upperneck -9.55998 -0.994363 0.333655
head -1.44905 -0.499946 0.0525549
rclavicle 1.21259e-014 8.74653e-015
rhumerus -28.7699 26.3488 -90.9256
rradius 110.62
rwrist 0.573339
rhand -37.4342 29.5105
rfingers 7.12502
rthumb -10.4935 -0.207539
lclavicle 1.21259e-014 8.74653e-015
lhumerus -63.9037 -6.25078 94.3581
lradius 106.803
lwrist 25.6417
lhand -37.2917 8.64994
lfingers 7.12502
lthumb -10.3561 38.3749
rfemur 21.6306 4.10914 38.0153
rtibia 35.5648
rfoot 34.0674 -3.57938
rtoes 17.1085
lfemur -37.5245 -4.59445 -10.1858
ltibia 26.9587
lfoot 3.74717 -2.2625
ltoes -16.2346
3
root 1.29265 18.2477 -30.1055 4.5115 2.20827 -7.96056
lowerback 12.8822 0.275002 8.15828
upperback 1.20279 1.54155 0.214653
thorax -5.7529 0.562473 -4.65146
lowerneck -8.90393 -0.714824 0.0837087
upperneck -10.196 -0.90302 0.682885
head -1.69492 -0.45436 0.18817
rclavicle -1.94809e-014 -1.35174e-014
rhumerus -29.4945 26.7311 -91.2795
rradius 108.857
rwrist 0.14126
rhand -36.109 26.1878
rfingers 7.12502
rthumb -9.215 -3.59079
lclavicle -1.94809e-014 -1.35174e-014
lhumerus -62.6188 -6.40014 94.3055
lradius 106.882
lwrist 25.5469
lhand -36.9751 8.26074
lfingers 7.12502
lthumb -10.0506 38.0007
rfemur 19.4466 3.62143 37.2538
rtibia 41.6559
rfoot 35.2438 -4.53452
rtoes 20.0344
lfemur -36.4709 -3.67899 -11.3486
ltibia 25.666
lfoot 3.69952 -1.66081
ltoes -21.6402
4
root 1.28656 18.2025 -29.5998 4.21485 2.5451 -7.56495
lowerback 12.9744 0.410819 7.90709
upperback 2.41857 1.60631 -0.299668
thorax -4.48899 0.686441 -5.05046
lowerneck -13.1177 -0.831567 1.20561
upperneck -9.34486 -1.20397 0.662299
head -0.770391 -0.626732 -0.0287426
rclavicle 2.18663e-015 -2.54444e-014
rhumerus -27.9534 25.7256 -90.852
rradius 106.675
rwrist 0.553856
rhand -35.0069 24.0944
rfingers 7.12502
rthumb -8.15147 -5.72832
lclavicle 2.18663e-015 -2.54444e-014
lhumerus -59.0863 -8.15082 93.7787
lradius 106.679
lwrist 25.7058
lhand -37.2406 8.99247
lfingers 7.12502
lthumb -10.3068 38.7199
rfemur 17.5017 2.60086 36.4719
rtibia 47.2672
rfoot 35.7293 -5.75524
rtoes 21.3108
lfemur -35.1776 -3.5535 -12.3527
ltibia 24.5606
lfoot 4.13566 -0.705471
ltoes -22.8207
5
root 1.28209 18.1562 -29.0937 3.8769 2.84742 -6.85148
lowerback 13.5633 0.218702 7.08058
upperback 1.9286 1.30662 -0.30271
thorax -5.39912 0.500924 -4.56008
lowerneck -10.2473 -0.784364 0.506597
upperneck -10.3442 -1.00775 1.07687
head -1.52565 -0.521162 0.233901
rclavicle -1.43125e-014 -1.43125e-014
rhumerus -30.5776 26.1154 -91.6562
rradius 104.708
rwrist 0.483619
rhand -34.242 23.5577
rfingers 7.12502
rthumb -7.41316 -6.29245
lclavicle -1.43125e-014 -1.43125e-014
lhumerus -59.2222 -8.03738 94.2514
lradius 106.904
lwrist 25.9563
lhand -37.483 9.22629
lfingers 7.12502
lthumb -10.5406 38.942
rfemur 15.492 1.49218 35.2227
rtibia 52.9395
rfoot 36.2364 -6.68543
rtoes 20.0341
lfemur -33.6798 -3.4858 -13.6779
ltibia 23.997
lfoot 4.36533 -0.209753
ltoes -24.858
6
root 1.27416 18.0982 -28.5701 3.86275 2.91443 -5.92551
lowerback 13.4087 0.361436 5.98304
upperback 2.09199 1.30214 -0.59508
thorax -5.15892 0.530127 -4.24137
lowerneck -10.3205 -0.866618 0.754242
upperneck -10.2821 -1.13624 1.14651
head -1.49482 -0.593839 0.212131
rclavicle 6.16232e-015 1.11319e-014
rhumerus -31.552 25.4835 -91.8389
rradius 102.55
rwrist -0.376064
rhand -34.0431 24.0135
rfingers 7.12502
rthumb -7.22114 -5.84326
lclavicle 6.16232e-015 1.11319e-014
lhumerus -57.696 -9.00188 94.401
lradius 106.966
lwrist 26.5956
lhand -37.2121 9.22443
lfingers 7.12502
lthumb -10.2792 38.9532
rfemur 13.1397 0.563981 33.6177
rtibia 58.6131
rfoot 36.8419 -7.44202
rtoes 19.6334
lfemur -32.5286 -3.04372 -15.2595
ltibia 24.1379
lfoot 4.53369 -0.830923
ltoes -26.2172
7
root 1.25039 18.0155 -28.0676 3.69267 3.05159 -5.0656
lowerback 13.6417 0.416485 4.72839
upperback 2.03231 1.19929 -0.748767
thorax -5.38662 0.4931 -3.68145
lowerneck -9.06168 -0.906478 0.875262
upperneck -10.9903 -1.17971 1.11243
head -1.92897 -0.628098 0.19134
rclavicle 1.45113e-014 2.38542e-015
rhumerus -32.9661 24.8841 -92.1031
rradius 100.469
rwrist -1.37944
rhand -34.3924 25.3576
rfingers 7.12502
rthumb -7.55829 -4.48731
lclavicle 1.45113e-014 2.38542e-015
lhumerus -56.5943 -9.75318 94.627
lradius 107.184
lwrist 27.3756
lhand -37.3688 9.91444
lfingers 7.12502
lthumb -10.4305 39.6357
rfemur 10.835 -0.609924 32.0559
rtibia 64.3339
rfoot 36.8996 -8.33716
rtoes 19.7344
lfemur -31.5709 -2.11967 -16.9197
ltibia 24.9976
lfoot 4.52235 -3.2604
ltoes -23.3937
8
root 1.22393 17.9224 -27.5747 2.87004 2.71085 -4.32028
lowerback 14.6959 0.55747 3.45969
upperback 1.97542 1.23022 -0.860892
thorax -6.05059 0.51501 -3.11285
lowerneck -7.37306 -0.884648 1.00609
upperneck -11.5695 -1.13682 1.05021
head -2.4053 -0.620081 0.162483
rclavicle 2.20651e-014 1.59028e-014
rhumerus -34.4715 24.4535 -92.535
rradius 98.2143
rwrist -2.47719
rhand -34.7496 26.9626
rfingers 7.12502
rthumb -7.90313 -2.86967
lclavicle 2.20651e-014 1.59028e-014
lhumerus -55.7694 -10.4213 94.857
lradius 107.574
lwrist 28.313
lhand -38.2947 11.4181
lfingers 7.12502
lthumb -11.3235 41.0924
rfemur 9.26644 -1.53848 30.4072
rtibia 69.954
rfoot 36.1819 -9.64536
rtoes 20.6818
lfemur -30.131 -0.876886 -18.3983
ltibia 26.5084
lfoot 3.06009 -6.58623
ltoes -16.8767
9
root 1.18814 17.8283 -27.0868 2.1164 1.03521 -3.746
lowerback 15.8086 1.23525 1.93295
upperback 1.82907 1.89632 -0.911683
thorax -6.81622 0.857985 -2.47028
lowerneck -5.69981 -0.819428 0.86683
upperneck -11.9331 -0.999769 1.28017
head -2.81718 -0.559632 0.269941
rclavicle -1.39149e-015 1.90833e-014
rhumerus -36.0453 23.8658 -92.9409
rradius 95.882
rwrist -3.19635
rhand -34.7637 27.6126
rfingers 7.12502
rthumb -7.9167 -2.21917
lclavicle -1.39149e-015 1.90833e-014
lhumerus -54.8457 -11.3256 95.1533
lradius 108.009
lwrist 29.3064
lhand -38.3357 12.6629
lfingers 7.12502
lthumb -11.363 42.335
rfemur 7.4854 -1.15881 28.8475
rtibia 75.5485
rfoot 35.5854 -10.8999
rtoes 21.5268
lfemur -28.7604 1.28644 -19.4645
ltibia 28.7221
lfoot 0.503488 -8.74235
ltoes -8.17357
10
root 1.18704 17.7077 -26.6069 2.04918 2.24172 -2.91158
lowerback 16.2674 0.82162 1.25094
upperback 1.47316 1.22646 -1.05876
thorax -7.49962 0.537348 -2.11665
lowerneck -4.16009 -0.744161 0.545753
upperneck -12.082 -0.848319 1.56428
head -3.14219 -0.486052 0.424234
rclavicle 1.23246e-014 4.77083e-015
rhumerus -37.8877 23.1761 -93.3286
rradius 93.5299
rwrist -3.25489
rhand -34.4184 27.9623
rfingers 7.12502
rthumb -7.5834 -1.88179
lclavicle 1.23246e-014 4.77083e-015
lhumerus -53.887 -12.297 95.5063
lradius 108.599
lwrist 30.4977
lhand -37.8202 13.6088
lfingers 7.12502
lthumb -10.8658 43.3077
rfemur 4.85604 -3.48071 26.8496
rtibia 80.8889
rfoot 34.6696 -11.705
rtoes 21.9405
lfemur -28.491 0.64647 -20.7728
ltibia 31.5166
lfoot -3.31859 -7.51164
ltoes -10.6403
